<svg xmlns:mydata="http://www.w3.org/2000/svg" mydata:contrastcolor="ffffff" mydata:template="InvertedHex1" mydata:presentation="2.5" mydata:layouttype="undefined" mydata:specialfontid="undefined" mydata:id1="901" mydata:id2="001" mydata:companyname="JP Dictionary" mydata:companytagline="Codeesh" version="1.1" xmlns="http://www.w3.org/2000/svg" xmlns:xlink="http://www.w3.org/1999/xlink" viewBox="127.56538147307442 106.00000000000001 294.8692370538512 258">
	<g fill="currentColor" fill-rule="none" stroke="none" stroke-width="1" stroke-linecap="butt" stroke-linejoin="miter" stroke-miterlimit="10" stroke-dasharray="" stroke-dashoffset="0" font-family="none" font-weight="none" font-size="none" text-anchor="none" style="mix-blend-mode: normal">
		<g data-paper-data="{&quot;isGlobalGroup&quot;:true,&quot;bounds&quot;:{&quot;x&quot;:127.56538147307442,&quot;y&quot;:106.00000000000001,&quot;width&quot;:294.8692370538512,&quot;height&quot;:258}}">
			<g data-paper-data="{&quot;fillRule&quot;:&quot;evenodd&quot;,&quot;fillRuleOriginal&quot;:&quot;evenodd&quot;,&quot;isIcon&quot;:true,&quot;iconStyle&quot;:&quot;standalone&quot;,&quot;selectedEffects&quot;:{&quot;container&quot;:&quot;&quot;,&quot;transformation&quot;:&quot;&quot;,&quot;pattern&quot;:&quot;&quot;},&quot;bounds&quot;:{&quot;x&quot;:204.706378651399,&quot;y&quot;:166.3885526327383,&quot;width&quot;:140.58708592057803,&quot;height&quot;:113.5415505147347},&quot;iconType&quot;:&quot;icon&quot;,&quot;rawIconId&quot;:&quot;2248&quot;,&quot;combineTerms&quot;:&quot;book&quot;,&quot;isDetailed&quot;:false,&quot;suitableAsStandaloneIcon&quot;:false}" fill-rule="evenodd">
				<path d="M221.63347,166.38855c17.31292,1.39766 35.18342,7.13187 51.84007,16.63486v96.90669h-0.16375c-16.64294,-9.20514 -34.42172,-14.75033 -51.67632,-16.10488zM266.71569,279.9301c-15.21219,-7.61778 -31.2067,-12.14862 -46.71191,-13.1614l-1.42604,-0.09328v-89.49304c-1.81014,-0.00666 -3.61692,0.01003 -5.40864,0.09179v96.46795c15.28086,-0.671 30.80731,1.39139 45.99771,6.18797zM247.14518,279.9301c-11.83546,-2.66912 -23.80786,-3.72658 -35.41715,-3.06028l-1.61474,0.09328v-89.41943c-1.80509,0.18037 -3.6202,0.3123 -5.40692,0.55938v91.82705zM345.29346,279.9301h-42.43708c11.83428,-2.66834 23.80653,-3.7258 35.41506,-3.06028l1.61637,0.09328v-89.41943c1.80372,0.17873 3.6184,0.31057 5.40566,0.55938zM290.85278,279.9301h-7.56604c15.21125,-7.61778 31.20717,-12.14862 46.71238,-13.1614l1.42275,-0.09328v-89.49304c1.81155,-0.00666 3.61684,0.01168 5.41036,0.09179v96.46795c-15.26377,-0.66865 -30.79642,1.39845 -45.97945,6.18797zM276.69005,279.9301c16.64058,-9.20592 34.42532,-14.7519 51.67938,-16.10645v-97.4351c-17.31284,1.39933 -35.18538,7.13186 -51.84007,16.63493v96.90661z" data-paper-data="{&quot;isPathIcon&quot;:true}">
				</path>
			</g>
			<g>
				<path d="M165.34657,324.91982l-0.01192,-0.08841c3.04589,-0.57658 5.27418,-3.22155 5.27495,-6.38583l0.00115,-18.92801c0.34249,-0.22025 0.82259,-0.33134 1.00556,-0.35825l0.5097,-0.0715v-2.33054h-10.12746v2.33054l0.5097,0.0715c0.17067,0.0246 0.65884,0.13569 1.00594,0.35902v21.86819c0,0.58273 -0.41744,1.06937 -0.98057,1.15547c-0.01538,0.00192 -1.22889,0.15529 -2.34592,-0.06035c0.33788,-0.47395 0.52584,-1.04553 0.52584,-1.64787c0,-1.5756 -1.28232,-2.85792 -2.85792,-2.85792c-1.57522,0 -2.85754,1.28193 -2.85638,2.82064c-0.00423,0.06266 -0.08457,1.55024 1.03362,2.74145c0.88025,0.93829 2.22253,1.41378 3.98917,1.41378h4.65532z" data-paper-data="{&quot;glyphName&quot;:&quot;J&quot;,&quot;glyphIndex&quot;:0,&quot;firstGlyphOfWord&quot;:true,&quot;word&quot;:1}" fill-rule="nonzero">
				</path>
				<path d="M183.72946,324.95172v-2.33093l-0.5097,-0.0715c-0.17105,-0.02422 -0.65884,-0.13492 -1.00556,-0.35517v-8.67563h2.78989c2.01765,0 3.90192,-0.40937 5.60245,-1.21659c2.35015,-1.11703 5.15156,-3.33418 5.15156,-7.55206c0.00038,-7.61626 -9.09692,-7.98681 -9.20762,-7.98988h-12.94963l0.00192,2.329l0.50662,0.07419c0.18412,0.02652 0.66499,0.13761 1.00709,0.35786v22.67349c-0.34287,0.21795 -0.82297,0.32788 -1.00594,0.35479l-0.5097,0.0715v2.33093zM182.21535,299.82853h3.47794c0.94406,0 1.79509,0.4751 2.22061,1.2408c0.52815,0.94944 0.79568,2.31401 0.79568,4.05567c0,2.03072 -0.38054,3.65822 -1.10012,4.70721c-0.43666,0.63693 -1.19621,1.01786 -2.03033,1.01786h-3.36378z" data-paper-data="{&quot;glyphName&quot;:&quot;P&quot;,&quot;glyphIndex&quot;:1,&quot;lastGlyphOfWord&quot;:true,&quot;word&quot;:1}" fill-rule="nonzero">
				</path>
				<path d="M218.59418,324.95057c0.14184,-0.00653 14.23003,-0.84681 14.23003,-14.1274c0,-13.28982 -14.09088,-14.05667 -14.25924,-14.0632h-13.36746l0.00192,2.329l0.50662,0.07419c0.18412,0.02652 0.66499,0.138 1.00709,0.35825v22.6731c-0.34287,0.21795 -0.82297,0.32827 -1.00594,0.35479l-0.5097,0.0715v2.33093h0.59196zM213.80932,299.82777l4.70068,-0.00231c0.28137,0.02729 6.89092,0.78684 6.89092,11.03346c0,10.23624 -6.60378,10.93121 -6.83595,10.95389h-4.75564z" data-paper-data="{&quot;glyphName&quot;:&quot;D&quot;,&quot;glyphIndex&quot;:2,&quot;firstGlyphOfWord&quot;:true,&quot;word&quot;:2}" fill-rule="nonzero">
				</path>
				<path d="M244.3735,324.24099v-1.22581c0,-0.23947 -0.14376,-0.4555 -0.36517,-0.54698c-0.06304,-0.02614 -0.128,-0.04113 -0.19296,-0.04459c-0.19488,-0.01538 -1.11972,-0.14568 -1.1966,-1.16085v-10.27737c0.0123,-0.19604 0.02499,-0.94444 0.0073,-4.62995c-0.00269,-0.48394 -0.25062,-0.92253 -0.66268,-1.17277c-0.41129,-0.24947 -0.91407,-0.26792 -1.34497,-0.04651c-1.30538,0.67268 -3.77161,1.80086 -5.61706,1.80086c-0.26715,0 -0.50124,0.17912 -0.5712,0.43782l-0.26753,0.99018c-0.07841,0.28906 0.0715,0.59157 0.34902,0.70343c0.0173,0.00692 1.67478,0.71112 1.67478,1.89503v10.11747c-0.00807,1.19468 -1.01978,1.32844 -1.21774,1.34267c-0.31289,0.01768 -0.5589,0.27714 -0.5589,0.59157v1.22581c0,0.32673 0.26523,0.59196 0.59234,0.59196h8.7798c0.32711,0 0.59234,-0.26446 0.59157,-0.59196zM241.82385,301.03128c0,-1.69207 -1.37649,-3.06857 -3.0678,-3.06857c-1.69207,0 -3.06857,1.37649 -3.06857,3.06857c0,1.69131 1.37649,3.0678 3.06857,3.0678c1.69131,0 3.0678,-1.37649 3.0678,-3.0678z" data-paper-data="{&quot;glyphName&quot;:&quot;i&quot;,&quot;glyphIndex&quot;:3,&quot;word&quot;:2}" fill-rule="nonzero">
				</path>
				<path d="M263.71936,319.06521c0.00538,-0.01192 0.01153,-0.02383 0.01614,-0.03613c0.18451,-0.45166 0.17336,-0.8691 -0.03152,-1.17392c-0.10109,-0.14991 -0.3398,-0.40207 -0.80798,-0.40207c-0.39707,0 -0.77031,0.23755 -1.03785,0.65077c-0.09417,0.13492 -0.15606,0.26407 -0.19296,0.3421c-0.00846,0.01576 -0.01614,0.03306 -0.02229,0.04959c-0.02844,0.07188 -0.7461,1.75588 -4.6534,1.75588c-3.94151,0 -4.61957,-3.10931 -4.76256,-6.14982c-0.15414,-3.41106 0.25792,-5.64473 1.22351,-6.63914c0.37555,-0.38669 0.82605,-0.57428 1.40301,-0.56197c1.41916,0.0196 2.29479,0.4974 2.58885,1.37303c0.05343,0.21833 0.08995,0.46511 0.10955,0.73687c0.08187,1.06552 0.50701,2.00766 1.19583,2.65112c0.98634,0.9233 2.35053,1.22966 3.47563,0.783c0.74148,-0.29521 1.31461,-0.86064 1.61327,-1.5929c0.3298,-0.80798 0.30636,-1.75434 -0.06688,-2.59731c-1.13894,-2.5508 -3.9319,-3.79121 -8.53917,-3.79121c-6.38237,0 -9.8261,5.41448 -9.8261,10.50954c0,4.55499 2.57347,9.87338 9.8261,9.87338c5.97454,0 8.23089,-5.13503 8.48882,-5.7808z" data-paper-data="{&quot;glyphName&quot;:&quot;c&quot;,&quot;glyphIndex&quot;:4,&quot;word&quot;:2}" fill-rule="nonzero">
				</path>
				<path d="M278.92491,318.93038c0.04618,-0.1776 0.0071,-0.36646 -0.10479,-0.51091c-0.11189,-0.14445 -0.28476,-0.2297 -0.46828,-0.2297h-0.79033c-0.24509,0 -0.46532,0.15155 -0.55294,0.38007c-0.28298,0.73409 -1.30538,2.63859 -2.62675,2.63859c-0.50084,0 -1.07805,-1.22842 -1.16093,-3.90609v-11.55961h3.32533c0.32679,0 0.59201,-0.26522 0.59201,-0.59201v-1.02596c0,-0.32679 -0.26522,-0.59201 -0.59201,-0.59201h-3.32533v-2.65931c0,-0.40849 -0.23088,-0.76725 -0.60148,-0.93715c-0.37237,-0.16991 -0.79566,-0.10952 -1.10528,0.15984c-1.18994,1.03365 -4.17486,3.43722 -6.18296,3.43722c-0.32679,0 -0.59201,0.26522 -0.59201,0.59201v1.02596c0,0.32679 0.26522,0.59201 0.59201,0.59201c0.56063,0 1.2077,0.0965 1.4522,0.2078c-0.01362,1.99212 -0.0888,14.06914 0.00533,14.81271c0.15748,1.25684 1.0005,4.17901 5.42401,4.17901c5.09248,0 6.69624,-5.9503 6.71222,-6.01246z" data-paper-data="{&quot;glyphName&quot;:&quot;t&quot;,&quot;glyphIndex&quot;:5,&quot;word&quot;:2}" fill-rule="nonzero">
				</path>
				<path d="M290.07718,324.24099v-1.22581c0,-0.23947 -0.14376,-0.4555 -0.36517,-0.54698c-0.06304,-0.02614 -0.128,-0.04113 -0.19296,-0.04459c-0.19488,-0.01538 -1.11972,-0.14568 -1.1966,-1.16085v-10.27737c0.0123,-0.19604 0.02499,-0.94444 0.0073,-4.62995c-0.00269,-0.48394 -0.25062,-0.92253 -0.66268,-1.17277c-0.41129,-0.24947 -0.91407,-0.26792 -1.34497,-0.04651c-1.30538,0.67268 -3.77161,1.80086 -5.61706,1.80086c-0.26715,0 -0.50124,0.17912 -0.5712,0.43782l-0.26753,0.99018c-0.07841,0.28906 0.0715,0.59157 0.34902,0.70343c0.0173,0.00692 1.67478,0.71112 1.67478,1.89503v10.11747c-0.00807,1.19468 -1.01978,1.32844 -1.21774,1.34267c-0.31289,0.01768 -0.5589,0.27714 -0.5589,0.59157v1.22581c0,0.32673 0.26523,0.59196 0.59234,0.59196h8.7798c0.32711,0 0.59234,-0.26446 0.59157,-0.59196zM287.52754,301.03128c0,-1.69207 -1.37649,-3.06857 -3.0678,-3.06857c-1.69207,0 -3.06857,1.37649 -3.06857,3.06857c0,1.69131 1.37649,3.0678 3.06857,3.0678c1.69131,0 3.0678,-1.37649 3.0678,-3.0678z" data-paper-data="{&quot;glyphName&quot;:&quot;i&quot;,&quot;glyphIndex&quot;:6,&quot;word&quot;:2}" fill-rule="nonzero">
				</path>
				<path d="M311.30559,313.4766c-0.36056,-2.88291 -2.02111,-5.57285 -4.44237,-7.19574c-1.39187,-0.93291 -3.02782,-1.51141 -4.73104,-1.67247c-1.67401,-0.1576 -3.34725,0.10494 -4.97282,0.78223c-1.88657,0.78723 -3.05434,1.79009 -3.56673,3.06588c-0.50585,1.25849 -0.40322,2.71185 0.2733,3.88731c0.41283,0.71611 1.05783,1.35804 1.86505,1.85582c1.51487,0.93368 3.42336,1.40955 5.10313,1.27578c0.61848,-0.0492 1.50642,-0.24255 2.22599,-0.88255c0.93522,-0.83181 1.27809,-2.46585 0.76493,-3.64284c-0.47972,-1.09858 -1.63903,-1.78202 -3.02551,-1.78202c-1.27155,0 -2.03533,0.91792 -2.61422,1.93232c-0.02614,0.04574 -0.05266,0.09187 -0.09187,0.12608c-0.07188,0.06342 -0.17797,0.07649 -0.27215,0.05689c-0.83835,-0.17144 -1.65133,-0.63386 -1.73935,-1.58252c-0.12185,-1.32306 1.50795,-2.17832 2.01035,-2.40934c1.44837,-0.66499 3.51599,-1.09089 4.57575,-0.09879c0.7903,0.73918 1.12856,1.92693 1.33382,2.87906c0.3594,1.65863 0.40553,3.37608 0.40553,4.68607c0,3.91153 -0.59388,6.54189 -1.71668,7.60703c-0.40976,0.38823 -0.89216,0.56159 -1.46759,0.53084c-0.9652,-0.05151 -1.72475,-0.41091 -2.32016,-1.0982c-1.7259,-1.98959 -1.39648,-5.95916 -1.39302,-5.99952c0.02422,-0.27561 -0.14568,-0.53199 -0.40899,-0.61656c-2.79796,-0.89524 -4.27439,-4.15561 -4.28938,-4.1879c-0.08995,-0.20257 -0.28522,-0.33826 -0.50624,-0.35133c-0.22525,-0.01422 -0.4309,0.0984 -0.54391,0.28791c-0.50086,0.84181 -0.74302,1.5683 -0.76762,3.41951c-0.07611,5.65819 4.34166,10.41152 9.84724,10.59641c0.11839,0.00384 0.2364,0.00577 0.35402,0.00577c2.66188,0 5.16578,-1.00979 7.08426,-2.86484c2.00304,-1.9377 3.10662,-4.54077 3.10662,-7.3295c-0.00115,-0.42744 -0.02729,-0.85834 -0.08034,-1.28078z" data-paper-data="{&quot;glyphName&quot;:&quot;ïœ&quot;,&quot;glyphIndex&quot;:7,&quot;word&quot;:2}" fill-rule="nonzero">
				</path>
				<path d="M322.51946,324.35362v-1.22581c0,-0.30982 -0.24332,-0.56736 -0.55198,-0.5908c-0.18758,-0.01422 -1.1251,-0.13992 -1.20236,-1.16239v-10.26699c0.00538,-0.07534 0.01038,-0.24101 0.01307,-0.74379c0.36056,-1.00171 0.8272,-1.68938 1.42493,-2.10145c0.62847,-0.43205 1.2162,-0.51469 1.74666,-0.24447c0.83527,0.42436 1.49065,1.68054 1.52448,2.92211c0.07342,2.6788 0.04843,5.41756 0.02422,8.0656l-0.01768,2.18563c-0.00846,1.19775 -1.0194,1.3296 -1.21736,1.34382c-0.31366,0.0173 -0.56005,0.27714 -0.56005,0.59157v1.22351c0,0.32673 0.26523,0.59196 0.59196,0.59196h8.78249c0.32673,0 0.59196,-0.26523 0.59196,-0.59196v-1.22351c0,-0.23563 -0.13876,-0.44896 -0.35517,-0.54314c-0.06573,-0.02806 -0.13415,-0.0442 -0.20334,-0.04843c-0.1945,-0.01461 -1.11972,-0.14338 -1.19429,-1.16085c0,-1.29961 0.03075,-2.63613 0.06035,-3.92921c0.05804,-2.53273 0.11801,-5.15118 -0.04305,-7.70082c-0.10186,-1.61558 -0.78377,-3.03128 -1.9204,-3.98648c-1.09666,-0.92176 -2.53696,-1.33805 -4.05721,-1.16931c-2.00497,0.22141 -3.84503,1.12895 -5.18116,2.51082c-0.00115,-0.28867 -0.00269,-0.56197 -0.00384,-0.80837c-0.00231,-0.44704 -0.23179,-0.85142 -0.61425,-1.08167c-0.38323,-0.23063 -0.84796,-0.24447 -1.24273,-0.03729c-1.34151,0.70112 -3.87463,1.87735 -5.76812,1.87735c-0.26753,0 -0.50124,0.17951 -0.5712,0.4382l-0.26677,0.99018c-0.07841,0.28906 0.07188,0.59119 0.34902,0.70305c0.0173,0.00692 1.67478,0.71073 1.67478,1.89503v10.11785c-0.00807,1.19468 -1.01978,1.32844 -1.21774,1.34267c-0.31328,0.01768 -0.5589,0.27714 -0.5589,0.59157v1.22581c0,0.32711 0.26523,0.59234 0.59196,0.59234h8.78018c0.32673,0 0.59196,-0.26523 0.59157,-0.59234z" data-paper-data="{&quot;glyphName&quot;:&quot;n&quot;,&quot;glyphIndex&quot;:8,&quot;word&quot;:2}" fill-rule="nonzero">
				</path>
				<path d="M345.82724,323.52949c0.45627,0.61733 1.32191,1.30538 2.91481,1.30538h4.28323c0.30021,0 0.55313,-0.22487 0.58811,-0.52315c0.03498,-0.29867 -0.15952,-0.57543 -0.45166,-0.645c-0.01384,-0.00269 -1.32691,-0.38247 -1.32691,-2.84101l-0.00115,-11.7784c-0.01345,-0.18797 -0.42513,-4.59766 -8.01833,-4.59766c-5.13619,0 -6.95818,2.37398 -7.58781,3.78929c-0.47818,1.0759 -0.40361,2.24905 0.1995,3.13699c0.55006,0.81067 1.3838,1.23927 2.41126,1.23927c0.8987,0 1.73244,-0.33557 2.41011,-0.97019c0.69228,-0.64769 1.11741,-1.58906 1.19698,-2.65074c0.10071,-1.34382 0.57428,-2.02457 1.40686,-2.02457c0.41629,0 0.72918,0.12031 0.95905,0.36709c0.47664,0.512 0.51815,1.48604 0.49202,1.86313v3.8162c-0.45166,-0.09187 -0.91138,-0.13684 -1.38841,-0.13684c-5.579,0 -8.90972,2.37705 -8.90972,6.35816c0,4.60112 4.72412,5.6086 6.60339,5.6086c0.0196,0 0.03844,0 0.05843,0c1.0094,0 2.72492,-0.02422 4.16023,-1.31653zM345.30332,315.37086v5.10082c-0.48087,0.41629 -0.94675,0.62694 -1.38841,0.62694c-1.46452,0 -2.13104,-1.59175 -2.13104,-3.07203c0,-1.61904 1.02093,-2.79373 2.42818,-2.79373c0.36709,0 0.73303,0.04651 1.09128,0.138z" data-paper-data="{&quot;glyphName&quot;:&quot;a&quot;,&quot;glyphIndex&quot;:9,&quot;word&quot;:2}" fill-rule="nonzero">
				</path>
				<path d="M364.95588,324.35438v-1.2262c0,-0.30943 -0.24332,-0.56697 -0.5516,-0.5908c-0.18797,-0.01422 -1.12549,-0.13953 -1.20236,-1.162v-6.92551c0,-1.54139 1.77049,-4.05683 3.16928,-4.05683c0.23525,0 0.26292,0.0419 0.44358,0.31328c0.27753,0.41475 0.69613,1.04284 2.02073,1.04284c1.10511,0 1.94,-0.61041 2.35053,-1.71975c0.1945,-0.52507 0.29329,-1.14202 0.29252,-1.83276l-0.59196,-0.01192h0.59196c0.00077,-0.59618 -0.09687,-1.46413 -0.56466,-2.211c-0.40361,-0.64539 -1.23004,-1.41455 -2.87061,-1.41455c-2.02073,0 -3.63746,1.64057 -4.82791,3.52368c-0.00192,-0.5835 -0.00423,-1.16623 -0.00653,-1.65709c-0.00231,-0.47587 -0.24639,-0.90639 -0.65192,-1.15201c-0.40438,-0.24447 -0.89678,-0.261 -1.31768,-0.04382c-1.31422,0.68037 -3.7966,1.82046 -5.65549,1.82046c-0.26715,0 -0.50124,0.17874 -0.5712,0.43743l-0.26753,0.99057c-0.07841,0.28906 0.0715,0.59157 0.34902,0.70343c0.0173,0.00692 1.67478,0.71073 1.67478,1.89503v10.11785c-0.00807,1.19468 -1.01978,1.32844 -1.21774,1.34267c-0.31289,0.01807 -0.5589,0.27714 -0.5589,0.59157v1.2262c0,0.32673 0.26523,0.59196 0.59234,0.59196h8.7798c0.32711,0 0.59234,-0.26523 0.59157,-0.59273z" data-paper-data="{&quot;glyphName&quot;:&quot;r&quot;,&quot;glyphIndex&quot;:10,&quot;word&quot;:2}" fill-rule="nonzero">
				</path>
				<path d="M381.45451,330.4169l10.22226,-21.09632c0.01066,-0.0219 1.09285,-2.22537 2.7345,-2.22537c0.32679,0 0.59201,-0.26522 0.59201,-0.59201v-1.26572c0,-0.32679 -0.26522,-0.59201 -0.59201,-0.59201h-6.57251c-0.32679,0 -0.59201,0.26522 -0.59201,0.59201v1.26572c0,0.26463 0.17583,0.49729 0.43039,0.56951c0.00533,0.00178 0.5778,0.18293 0.83237,0.67016c0.17346,0.33271 0.17168,0.76192 -0.00651,1.27756c-0.21608,0.62812 -1.25802,2.90677 -3.10155,6.77734l-4.27846,-8.00221c0.02782,-0.33508 0.11189,-0.57484 0.23799,-0.67016c0.06335,-0.04736 0.14208,-0.05861 0.20306,-0.05861c0.07223,0 0.09472,0.00888 0.09472,0.00888c0.17938,0.05447 0.37356,0.02013 0.52452,-0.09117c0.15037,-0.1113 0.23917,-0.28772 0.23917,-0.47538v-1.27164c0,-0.32679 -0.26522,-0.59201 -0.59201,-0.59201h-9.53671c-0.32679,0 -0.59201,0.26522 -0.59201,0.59201v1.27223c0,0.29837 0.2226,0.54998 0.5186,0.58727c0.0077,0.00059 0.76665,0.15096 1.27519,1.4522c0.00888,0.0225 0.01954,0.04499 0.03138,0.0669l8.13246,14.96308c-1.02596,2.11822 -1.92818,3.96233 -2.48704,5.10254c-0.35402,0.72699 -1.01885,1.59251 -1.72394,2.15196c0.03256,-0.18056 0.04914,-0.36468 0.04914,-0.54998c0,-1.73222 -1.40899,-3.14121 -3.14121,-3.14121c-1.73282,0 -3.1418,1.40899 -3.1418,3.14121c0,1.73045 1.4078,3.13944 3.09563,3.13884c0.00118,0 0.00237,0 0.00296,0c0.04144,0.00355 0.25812,0.01776 0.59379,0.01776c1.46996,0 5.22095,-0.27943 6.54764,-3.0234z" data-paper-data="{&quot;glyphName&quot;:&quot;y&quot;,&quot;glyphIndex&quot;:11,&quot;lastGlyphOfWord&quot;:true,&quot;word&quot;:2}" fill-rule="nonzero">
				</path>
				<path d="M127.56538,283.46228v54.78402c0,0.03867 0.00188,0.07708 0.00564,0.11523c0.00381,0.03867 0.00948,0.07682 0.01701,0.11445c0.00753,0.03815 0.01688,0.07551 0.02806,0.1121c0.01118,0.0371 0.02414,0.07342 0.03888,0.10896c0.01479,0.03554 0.03128,0.07029 0.04946,0.10426c0.01819,0.03397 0.03797,0.06715 0.05934,0.09955c0.02143,0.03188 0.04439,0.06271 0.0689,0.0925c0.02446,0.02979 0.0503,0.05827 0.07753,0.08544c0.02728,0.02717 0.05584,0.05304 0.08568,0.0776c0.02979,0.02456 0.06072,0.04756 0.09281,0.06898c0.03203,0.02143 0.06506,0.04128 0.09908,0.05958c0.03402,0.01829 0.06882,0.03475 0.10441,0.04938c0.03564,0.01463 0.07191,0.02744 0.1088,0.03841c0.03689,0.0115 0.07426,0.0209 0.1121,0.02822c0.03784,0.00784 0.07593,0.01359 0.11429,0.01725c0.03841,0.00366 0.07687,0.00549 0.11539,0.00549h292.51445c0.03815,0 0.07656,-0.00183 0.11523,-0.00549c0.03815,-0.00366 0.0763,-0.00941 0.11445,-0.01725c0.03763,-0.00732 0.07499,-0.01672 0.1121,-0.02822c0.03658,-0.01097 0.07264,-0.02378 0.10818,-0.03841c0.03606,-0.01463 0.07107,-0.03109 0.10504,-0.04938c0.03397,-0.01829 0.06689,-0.03815 0.09877,-0.05958c0.0324,-0.02143 0.06349,-0.04442 0.09328,-0.06898c0.02979,-0.02456 0.05827,-0.05043 0.08544,-0.0776c0.02717,-0.02717 0.05304,-0.05566 0.0776,-0.08544c0.02456,-0.02979 0.04756,-0.06062 0.06898,-0.0925c0.02143,-0.0324 0.04102,-0.06558 0.05879,-0.09955c0.01829,-0.03397 0.03475,-0.06872 0.04938,-0.10426c0.01516,-0.03554 0.02822,-0.07186 0.03919,-0.10896c0.01097,-0.03658 0.02038,-0.07395 0.02822,-0.1121c0.00732,-0.03763 0.0128,-0.07578 0.01646,-0.11445c0.00418,-0.03815 0.00627,-0.07656 0.00627,-0.11523v-54.78402c0,-0.03815 -0.00209,-0.07656 -0.00627,-0.11523c-0.00366,-0.03815 -0.00915,-0.0763 -0.01646,-0.11445c-0.00784,-0.03763 -0.01725,-0.07499 -0.02822,-0.1121c-0.01097,-0.03658 -0.02404,-0.07264 -0.03919,-0.10818c-0.01463,-0.03606 -0.03109,-0.07107 -0.04938,-0.10504c-0.01777,-0.03397 -0.03737,-0.06689 -0.05879,-0.09877c-0.02143,-0.03188 -0.04442,-0.06271 -0.06898,-0.0925c-0.02456,-0.02979 -0.05043,-0.05853 -0.0776,-0.08623c-0.02717,-0.02717 -0.05566,-0.05304 -0.08544,-0.0776c-0.02979,-0.02404 -0.06088,-0.04677 -0.09328,-0.0682c-0.03188,-0.02143 -0.0648,-0.04128 -0.09877,-0.05958c-0.03397,-0.01829 -0.06898,-0.03475 -0.10504,-0.04938c-0.03554,-0.01516 -0.07159,-0.02822 -0.10818,-0.03919c-0.0371,-0.01097 -0.07447,-0.02038 -0.1121,-0.02822c-0.03815,-0.00732 -0.0763,-0.0128 -0.11445,-0.01646c-0.03867,-0.00418 -0.07708,-0.00627 -0.11523,-0.00627h-292.51445c-0.03851,0 -0.07698,0.00209 -0.11539,0.00627c-0.03836,0.00366 -0.07645,0.00915 -0.11429,0.01646c-0.03784,0.00784 -0.0752,0.01725 -0.1121,0.02822c-0.03689,0.01097 -0.07316,0.02404 -0.1088,0.03919c-0.03559,0.01463 -0.07039,0.03109 -0.10441,0.04938c-0.03402,0.01829 -0.06705,0.03815 -0.09908,0.05958c-0.03209,0.02143 -0.06302,0.04416 -0.09281,0.0682c-0.02984,0.02456 -0.0584,0.05043 -0.08568,0.0776c-0.02723,0.0277 -0.05307,0.05644 -0.07753,0.08623c-0.02451,0.02979 -0.04748,0.06062 -0.0689,0.0925c-0.02137,0.03188 -0.04115,0.0648 -0.05934,0.09877c-0.01819,0.03397 -0.03467,0.06898 -0.04946,0.10504c-0.01474,0.03554 -0.0277,0.07159 -0.03888,0.10818c-0.01118,0.0371 -0.02054,0.07447 -0.02806,0.1121c-0.00753,0.03815 -0.0132,0.0763 -0.01701,0.11445c-0.00376,0.03867 -0.00564,0.07708 -0.00564,0.11523zM129.92024,337.06891v-52.42924h290.15959v52.42924z" fill-rule="evenodd">
				</path>
			</g>
			<g data-paper-data="{&quot;isSecondaryText&quot;:true}" fill-rule="nonzero">
				<path d="M233.0244,140.48814c0.47541,1.73464 -0.29935,3.53343 -1.88897,4.30689c-1.77412,0.86324 -3.90435,0.05666 -4.80902,-1.80262c-0.91158,-1.87347 -0.2385,-4.06162 1.53562,-4.92486c1.09286,-0.53176 2.44086,-0.50308 3.75975,0.25944l1.12344,-2.05621c-1.70367,-1.08434 -3.94664,-1.25681 -5.91946,-0.29689c-3.00891,1.46405 -4.227,5.09345 -2.75604,8.11655c1.47096,3.02311 5.07158,4.2903 8.09469,2.81934c2.81021,-1.36737 4.09507,-4.64308 3.08829,-7.50587z" data-paper-data="{&quot;glyphName&quot;:&quot;C&quot;,&quot;glyphIndex&quot;:0,&quot;firstGlyphOfWord&quot;:true,&quot;word&quot;:1}">
				</path>
				<path d="M248.06738,140.82383c3.23251,-0.92401 5.09231,-4.29562 4.1683,-7.52813c-0.92401,-3.23251 -4.28045,-5.09664 -7.52813,-4.1683c-3.23251,0.92401 -5.09664,4.28045 -4.17263,7.51296c0.92401,3.23251 4.28479,5.11182 7.53247,4.18347zM245.34958,131.37346c1.91219,-0.5466 3.90481,0.62392 4.4731,2.61199c0.57696,2.01842 -0.48948,4.03054 -2.40167,4.57714c-1.94254,0.55527 -3.89613,-0.59357 -4.4731,-2.61199c-0.56829,-1.98807 0.47431,-4.0262 2.40167,-4.57714z" data-paper-data="{&quot;glyphName&quot;:&quot;O&quot;,&quot;glyphIndex&quot;:1,&quot;word&quot;:1}">
				</path>
				<path d="M258.17107,126.21227l1.21659,11.69593l4.75687,-0.4948c3.35964,-0.34946 5.84735,-3.13142 5.49789,-6.49105c-0.3462,-3.32824 -3.35484,-5.55434 -6.73018,-5.20324zM261.59242,135.45719l-0.75935,-7.30014l2.30779,-0.24005c2.0409,-0.21229 3.78492,1.1456 4.00538,3.265c0.21882,2.1037 -1.20513,3.82285 -3.23033,4.03351z" data-paper-data="{&quot;glyphName&quot;:&quot;D&quot;,&quot;glyphIndex&quot;:2,&quot;word&quot;:1}">
				</path>
				<path d="M283.31039,137.01982l0.10468,-2.20727l-4.84023,-0.22955l0.13908,-2.93252l4.41454,0.20936l0.10468,-2.20727l-4.41454,-0.20936l0.10393,-2.1915l3.79966,0.1802l0.10468,-2.20727l-6.24342,-0.2961l-0.55706,11.74583z" data-paper-data="{&quot;glyphName&quot;:&quot;E&quot;,&quot;glyphIndex&quot;:3,&quot;word&quot;:1}">
				</path>
				<path d="M296.32704,139.00431l0.39816,-2.17358l-4.76636,-0.87311l0.52899,-2.88776l4.34717,0.79632l0.39816,-2.17358l-4.34717,-0.79632l0.39532,-2.15806l3.74167,0.68541l0.39816,-2.17358l-6.14814,-1.12623l-2.11879,11.56657z" data-paper-data="{&quot;glyphName&quot;:&quot;E&quot;,&quot;glyphIndex&quot;:4,&quot;word&quot;:1}">
				</path>
				<path d="M306.32797,136.38481c1.04307,0.46846 1.46508,1.21785 1.17485,2.11932c-0.23218,0.72118 -1.03148,1.1437 -1.79773,0.89701c-0.66108,-0.21283 -1.13373,-0.5474 -1.43657,-1.35791l-2.37782,0.79316c0.68945,1.51534 1.81658,2.39225 3.09367,2.8034c1.96821,0.63365 4.28923,-0.34361 4.9906,-2.52216c0.69653,-2.16353 -0.46505,-3.96352 -2.33447,-4.69803c-1.16275,-0.45725 -1.38841,-1.04394 -1.22395,-1.55477c0.19832,-0.616 0.73993,-0.85618 1.35594,-0.65786c0.39064,0.12576 0.80905,0.52578 1.00796,0.93803l2.26349,-0.74706c-0.52748,-1.29738 -1.44375,-2.05666 -2.55557,-2.4146c-1.54752,-0.49822 -3.72086,0.27787 -4.33033,2.17095c-0.56593,1.75787 0.30432,3.38116 2.16993,4.23051z" data-paper-data="{&quot;glyphName&quot;:&quot;S&quot;,&quot;glyphIndex&quot;:5,&quot;word&quot;:1}">
				</path>
				<path d="M319.34064,134.23714l-5.23704,10.52845l2.19048,1.08959l2.29164,-4.60708l4.83319,2.40412l-2.29164,4.60708l2.19048,1.08959l5.23704,-10.52845l-2.19048,-1.08959l-1.96125,3.94287l-4.83319,-2.40412l1.96125,-3.94287z" data-paper-data="{&quot;glyphName&quot;:&quot;H&quot;,&quot;glyphIndex&quot;:6,&quot;lastGlyphOfWord&quot;:true,&quot;word&quot;:1}">
				</path>
			</g>
			<g data-paper-data="{&quot;isContainerElementsWrapper&quot;:true}" fill-rule="evenodd">
				<path d="M224.78484,116.14047c15.98338,-6.76031 32.72169,-10.14047 50.21493,-10.14047c17.4935,0 34.23168,3.38016 50.21453,10.14047c15.43414,6.52776 29.10166,15.74202 41.00257,27.64278c11.89987,11.89999 21.11363,25.56723 27.64129,41.00171c6.76125,15.98291 10.14188,32.72127 10.14188,50.21508c0,15.57521 -2.67931,30.5513 -8.03872,44.93006h-1.43764c5.42081,-14.37119 8.13122,-29.34788 8.13122,-44.93006c0,-17.3118 -3.34509,-33.8754 -10.03527,-49.69082c-6.45972,-15.27334 -15.57785,-28.79817 -27.35439,-40.5745c-11.77706,-11.7769 -25.30192,-20.89521 -40.57457,-27.35493c-15.81563,-6.68945 -32.37926,-10.03417 -49.6909,-10.03417c-17.31135,0 -33.87488,3.34475 -49.69066,10.03417c-15.27305,6.45988 -28.79794,15.57819 -40.57465,27.35493c-11.77675,11.77674 -20.89506,25.30165 -27.35493,40.57473c-6.68945,15.81557 -10.03417,32.3791 -10.03417,49.69059c0,15.58305 2.71004,30.55913 8.1302,44.93006h-1.43701c-5.3592,-14.37798 -8.0388,-29.35467 -8.0388,-44.93006c0,-17.49321 3.38018,-34.23147 10.14047,-50.21485c6.52802,-15.43416 15.74228,-29.10147 27.64278,-41.00195c11.90055,-11.9006 25.56784,-21.11486 41.00187,-27.64278zM202.55236,341.77848c6.9517,4.72603 14.3626,8.75362 22.23279,12.08199c15.98314,6.75942 32.72132,10.13953 50.21461,10.13953c17.49368,0 34.23194,-3.3801 50.21453,-10.13953c7.87071,-3.32941 15.28154,-7.35674 22.23249,-12.08199h-2.4222c-6.39335,4.19848 -13.17133,7.81244 -20.33393,10.84189c-15.81563,6.68966 -32.37926,10.03449 -49.6909,10.03449c-17.31065,0 -33.87415,-3.34483 -49.69051,-10.03449c-7.16229,-3.02892 -13.94031,-6.64289 -20.33406,-10.84189z" data-paper-data="{&quot;isAdditionalOutlinePath&quot;:true}">
				</path>
				<path d="M161.42357,187.01989c6.23746,-14.74715 15.04272,-27.80724 26.41576,-39.18028c11.37299,-11.37305 24.43306,-20.1783 39.1802,-26.41576c15.26905,-6.4582 31.26246,-9.68731 47.98023,-9.68731c16.71764,0 32.71121,3.22913 47.98047,9.68731c14.74693,6.23731 27.80695,15.04256 39.18005,26.41576c11.37258,11.37246 20.17767,24.43252 26.41529,39.1802c6.45867,15.26863 9.68801,31.26204 9.68801,47.98023c0,15.60735 -2.81492,30.58422 -8.44477,44.93006h-2.53273c5.74821,-14.33174 8.62271,-29.30861 8.62271,-44.93006c0,-16.39985 -3.16689,-32.08739 -9.50145,-47.06277c-6.11847,-14.46598 -14.75582,-27.27682 -25.91204,-38.43254c-11.15675,-11.15659 -23.96749,-19.79394 -38.43222,-25.91204c-14.97583,-6.33425 -30.6636,-9.50137 -47.06332,-9.50137c-16.39946,0 -32.08708,3.16712 -47.06293,9.50137c-14.4651,6.11821 -27.27589,14.75555 -38.43238,25.91204c-11.15649,11.15646 -19.79383,23.96728 -25.91204,38.43246c-6.33425,14.97583 -9.50137,30.66344 -9.50137,47.06285c0,15.62224 2.87419,30.59911 8.62256,44.93006h-2.53335c-5.62933,-14.34506 -8.44399,-29.32175 -8.44399,-44.93006c0,-16.71777 3.2291,-32.71116 9.68731,-47.98015zM213.34328,341.77848c4.38509,2.53037 8.94385,4.79632 13.67625,6.79783c15.26973,6.45841 31.26314,9.68723 47.98023,9.68723c16.71798,0 32.71147,-3.22908 47.98047,-9.68723c4.73204,-2.00151 9.29032,-4.26746 13.67484,-6.79783h-4.85851c-3.15644,1.67699 -6.40093,3.22019 -9.73348,4.62961c-14.97609,6.33378 -30.66394,9.50066 -47.06332,9.50066c-16.39842,0 -32.08606,-3.16689 -47.06293,-9.50066c-3.33229,-1.40942 -6.57683,-2.95263 -9.73363,-4.62961z" data-paper-data="{&quot;isBaseLogoContainer&quot;:true}">
				</path>
			</g>
		</g>
	</g>
</svg>
